<svg width="1200" height="400" viewBox="0 0 1200 400" fill="none" xmlns="http://www.w3.org/2000/svg">
<path d="M46.33 90.6004C46.33 70.2044 30.0692 53.6702 10.0106 53.6702H7.38513C-2.24171 53.6702 -2.67928 71.0229 7.38513 71.0229H24.0134C26.9133 71.0229 29.2642 73.4135 29.2642 76.3623V93.4924C29.2642 102.169 46.33 102.169 46.33 93.4924C46.33 85.4265 46.33 90.6992 46.33 90.6992V90.6004Z" fill="#CDCCCF"/>
<path d="M53.6699 9.39946C53.6699 29.7955 69.9308 46.3297 89.9891 46.3297H92.6148C102.242 46.3297 102.679 28.9769 92.6148 28.9769H75.9865C73.0867 28.9769 70.7358 26.5863 70.7358 23.6376V6.50733C70.7358 -2.16906 53.6699 -2.16916 53.6699 6.50733C53.6699 14.5733 53.6699 9.30077 53.6699 9.30077V9.39946Z" fill="#CDCCCF"/>
<path d="M60.7675 53.6702C55.3857 53.6702 53.6699 55.7761 53.6699 61.0932V92.6146C53.6699 102.241 71.0225 102.679 71.0225 92.6146V75.9867C71.0225 73.0866 73.4129 70.7356 76.3617 70.7356H93.4917C102.168 70.7356 102.168 53.6702 93.4917 53.6702H60.7675Z" fill="#E2E1E4"/>
<path d="M39.2316 46.3295C44.6131 46.3295 46.3292 44.2236 46.3292 38.9065V7.38505C46.3292 -2.24167 28.9766 -2.67926 28.9766 7.38505V24.013C28.9766 26.9131 26.586 29.2641 23.6374 29.2641H6.50725C-2.16902 29.2641 -2.16914 46.3295 6.50725 46.3295H39.2316Z" fill="#E2E1E4"/>
<path d="M446.33 90.6004C446.33 70.2044 430.069 53.6702 410.011 53.6702H407.385C397.758 53.6702 397.321 71.0229 407.385 71.0229H424.013C426.913 71.0229 429.264 73.4135 429.264 76.3623V93.4924C429.264 102.169 446.33 102.169 446.33 93.4924C446.33 85.4265 446.33 90.6992 446.33 90.6992V90.6004Z" fill="#CDCCCF"/>
<path d="M453.67 9.39946C453.67 29.7955 469.931 46.3297 489.989 46.3297H492.615C502.242 46.3297 502.679 28.9769 492.615 28.9769H475.987C473.087 28.9769 470.736 26.5863 470.736 23.6376V6.50733C470.736 -2.16906 453.67 -2.16916 453.67 6.50733C453.67 14.5733 453.67 9.30077 453.67 9.30077V9.39946Z" fill="#CDCCCF"/>
<path d="M460.767 53.6702C455.386 53.6702 453.67 55.7761 453.67 61.0932V92.6146C453.67 102.241 471.023 102.679 471.023 92.6146V75.9867C471.023 73.0866 473.413 70.7356 476.362 70.7356H493.492C502.168 70.7356 502.168 53.6702 493.492 53.6702H460.767Z" fill="#E2E1E4"/>
<path d="M439.232 46.3295C444.613 46.3295 446.329 44.2236 446.329 38.9065V7.38505C446.329 -2.24167 428.977 -2.67926 428.977 7.38505V24.013C428.977 26.9131 426.586 29.2641 423.637 29.2641H406.507C397.831 29.2641 397.831 46.3295 406.507 46.3295H439.232Z" fill="#E2E1E4"/>
<path d="M846.33 90.6004C846.33 70.2044 830.069 53.6702 810.011 53.6702H807.385C797.758 53.6702 797.321 71.0229 807.385 71.0229H824.013C826.913 71.0229 829.264 73.4135 829.264 76.3623V93.4924C829.264 102.169 846.33 102.169 846.33 93.4924C846.33 85.4265 846.33 90.6992 846.33 90.6992V90.6004Z" fill="#CDCCCF"/>
<path d="M853.67 9.39946C853.67 29.7955 869.931 46.3297 889.989 46.3297H892.615C902.242 46.3297 902.679 28.9769 892.615 28.9769H875.987C873.087 28.9769 870.736 26.5863 870.736 23.6376V6.50733C870.736 -2.16906 853.67 -2.16916 853.67 6.50733C853.67 14.5733 853.67 9.30077 853.67 9.30077V9.39946Z" fill="#CDCCCF"/>
<path d="M860.767 53.6702C855.386 53.6702 853.67 55.7761 853.67 61.0932V92.6146C853.67 102.241 871.023 102.679 871.023 92.6146V75.9867C871.023 73.0866 873.413 70.7356 876.362 70.7356H893.492C902.168 70.7356 902.168 53.6702 893.492 53.6702H860.767Z" fill="#E2E1E4"/>
<path d="M839.232 46.3295C844.613 46.3295 846.329 44.2236 846.329 38.9065V7.38505C846.329 -2.24167 828.977 -2.67926 828.977 7.38505V24.013C828.977 26.9131 826.586 29.2641 823.637 29.2641H806.507C797.831 29.2641 797.831 46.3295 806.507 46.3295H839.232Z" fill="#E2E1E4"/>
<path d="M246.33 90.6004C246.33 70.2044 230.069 53.6702 210.011 53.6702H207.385C197.758 53.6702 197.321 71.0229 207.385 71.0229H224.013C226.913 71.0229 229.264 73.4135 229.264 76.3623V93.4924C229.264 102.169 246.33 102.169 246.33 93.4924C246.33 85.4265 246.33 90.6992 246.33 90.6992V90.6004Z" fill="#EEEDF0"/>
<path d="M253.67 9.39946C253.67 29.7955 269.931 46.3297 289.989 46.3297H292.615C302.242 46.3297 302.679 28.9769 292.615 28.9769H275.987C273.087 28.9769 270.736 26.5863 270.736 23.6376V6.50733C270.736 -2.16906 253.67 -2.16916 253.67 6.50733C253.67 14.5733 253.67 9.30077 253.67 9.30077V9.39946Z" fill="#EEEDF0"/>
<path d="M260.767 53.6702C255.386 53.6702 253.67 55.7761 253.67 61.0932V92.6146C253.67 102.241 271.023 102.679 271.023 92.6146V75.9867C271.023 73.0866 273.413 70.7356 276.362 70.7356H293.492C302.168 70.7356 302.168 53.6702 293.492 53.6702H260.767Z" fill="#EEEDF0"/>
<path d="M239.232 46.3295C244.613 46.3295 246.329 44.2236 246.329 38.9065V7.38505C246.329 -2.24167 228.977 -2.67926 228.977 7.38505V24.013C228.977 26.9131 226.586 29.2641 223.637 29.2641H206.507C197.831 29.2641 197.831 46.3295 206.507 46.3295H239.232Z" fill="#EEEDF0"/>
<path d="M646.33 90.6004C646.33 70.2044 630.069 53.6702 610.011 53.6702H607.385C597.758 53.6702 597.321 71.0229 607.385 71.0229H624.013C626.913 71.0229 629.264 73.4135 629.264 76.3623V93.4924C629.264 102.169 646.33 102.169 646.33 93.4924C646.33 85.4265 646.33 90.6992 646.33 90.6992V90.6004Z" fill="#EEEDF0"/>
<path d="M653.67 9.39946C653.67 29.7955 669.931 46.3297 689.989 46.3297H692.615C702.242 46.3297 702.679 28.9769 692.615 28.9769H675.987C673.087 28.9769 670.736 26.5863 670.736 23.6376V6.50733C670.736 -2.16906 653.67 -2.16916 653.67 6.50733C653.67 14.5733 653.67 9.30077 653.67 9.30077V9.39946Z" fill="#EEEDF0"/>
<path d="M660.767 53.6702C655.386 53.6702 653.67 55.7761 653.67 61.0932V92.6146C653.67 102.241 671.023 102.679 671.023 92.6146V75.9867C671.023 73.0866 673.413 70.7356 676.362 70.7356H693.492C702.168 70.7356 702.168 53.6702 693.492 53.6702H660.767Z" fill="#EEEDF0"/>
<path d="M639.232 46.3295C644.613 46.3295 646.329 44.2236 646.329 38.9065V7.38505C646.329 -2.24167 628.977 -2.67926 628.977 7.38505V24.013C628.977 26.9131 626.586 29.2641 623.637 29.2641H606.507C597.831 29.2641 597.831 46.3295 606.507 46.3295H639.232Z" fill="#EEEDF0"/>
<path d="M1046.33 90.6004C1046.33 70.2044 1030.07 53.6702 1010.01 53.6702H1007.39C997.758 53.6702 997.321 71.0229 1007.39 71.0229H1024.01C1026.91 71.0229 1029.26 73.4135 1029.26 76.3623V93.4924C1029.26 102.169 1046.33 102.169 1046.33 93.4924C1046.33 85.4265 1046.33 90.6992 1046.33 90.6992V90.6004Z" fill="#EEEDF0"/>
<path d="M1053.67 9.39946C1053.67 29.7955 1069.93 46.3297 1089.99 46.3297H1092.61C1102.24 46.3297 1102.68 28.9769 1092.61 28.9769H1075.99C1073.09 28.9769 1070.74 26.5863 1070.74 23.6376V6.50733C1070.74 -2.16906 1053.67 -2.16916 1053.67 6.50733C1053.67 14.5733 1053.67 9.30077 1053.67 9.30077V9.39946Z" fill="#EEEDF0"/>
<path d="M1060.77 53.6702C1055.39 53.6702 1053.67 55.7761 1053.67 61.0932V92.6146C1053.67 102.241 1071.02 102.679 1071.02 92.6146V75.9867C1071.02 73.0866 1073.41 70.7356 1076.36 70.7356H1093.49C1102.17 70.7356 1102.17 53.6702 1093.49 53.6702H1060.77Z" fill="#EEEDF0"/>
<path d="M1039.23 46.3295C1044.61 46.3295 1046.33 44.2236 1046.33 38.9065V7.38505C1046.33 -2.24167 1028.98 -2.67926 1028.98 7.38505V24.013C1028.98 26.9131 1026.59 29.2641 1023.64 29.2641H1006.51C997.831 29.2641 997.831 46.3295 1006.51 46.3295H1039.23Z" fill="#EEEDF0"/>
<path d="M1153.67 209.399C1153.67 229.795 1169.93 246.33 1189.99 246.33L1192.61 246.33C1202.24 246.33 1202.68 228.977 1192.61 228.977L1175.99 228.977C1173.09 228.977 1170.74 226.586 1170.74 223.638L1170.74 206.507C1170.74 197.831 1153.67 197.831 1153.67 206.507C1153.67 214.573 1153.67 209.301 1153.67 209.301L1153.67 209.399Z" fill="#CDCCCF"/>
<path d="M1146.33 290.6C1146.33 270.204 1130.07 253.67 1110.01 253.67L1107.39 253.67C1097.76 253.67 1097.32 271.023 1107.39 271.023L1124.01 271.023C1126.91 271.023 1129.26 273.413 1129.26 276.362L1129.26 293.492C1129.26 302.169 1146.33 302.169 1146.33 293.492C1146.33 285.426 1146.33 290.699 1146.33 290.699L1146.33 290.6Z" fill="#CDCCCF"/>
<path d="M1139.23 246.33C1144.61 246.33 1146.33 244.224 1146.33 238.907L1146.33 207.385C1146.33 197.758 1128.98 197.321 1128.98 207.385L1128.98 224.013C1128.98 226.913 1126.59 229.264 1123.64 229.264L1106.51 229.264C1097.83 229.264 1097.83 246.33 1106.51 246.33L1139.23 246.33Z" fill="#E2E1E4"/>
<path d="M1160.77 253.67C1155.39 253.67 1153.67 255.776 1153.67 261.093L1153.67 292.615C1153.67 302.241 1171.02 302.679 1171.02 292.615L1171.02 275.987C1171.02 273.087 1173.41 270.736 1176.36 270.736L1193.49 270.736C1202.17 270.736 1202.17 253.67 1193.49 253.67L1160.77 253.67Z" fill="#E2E1E4"/>
<path d="M753.67 209.399C753.67 229.795 769.931 246.33 789.989 246.33L792.615 246.33C802.242 246.33 802.679 228.977 792.615 228.977L775.987 228.977C773.087 228.977 770.736 226.586 770.736 223.638L770.736 206.507C770.736 197.831 753.67 197.831 753.67 206.507C753.67 214.573 753.67 209.301 753.67 209.301L753.67 209.399Z" fill="#CDCCCF"/>
<path d="M746.33 290.6C746.33 270.204 730.069 253.67 710.011 253.67L707.385 253.67C697.758 253.67 697.321 271.023 707.385 271.023L724.013 271.023C726.913 271.023 729.264 273.413 729.264 276.362L729.264 293.492C729.264 302.169 746.33 302.169 746.33 293.492C746.33 285.426 746.33 290.699 746.33 290.699L746.33 290.6Z" fill="#CDCCCF"/>
<path d="M739.233 246.33C744.614 246.33 746.33 244.224 746.33 238.907L746.33 207.385C746.33 197.758 728.977 197.321 728.977 207.385L728.977 224.013C728.977 226.913 726.587 229.264 723.638 229.264L706.508 229.264C697.832 229.264 697.832 246.33 706.508 246.33L739.233 246.33Z" fill="#E2E1E4"/>
<path d="M760.768 253.67C755.387 253.67 753.671 255.776 753.671 261.093L753.671 292.615C753.671 302.241 771.023 302.679 771.023 292.615L771.023 275.987C771.023 273.087 773.414 270.736 776.363 270.736L793.493 270.736C802.169 270.736 802.169 253.67 793.493 253.67L760.768 253.67Z" fill="#E2E1E4"/>
<path d="M353.67 209.399C353.67 229.795 369.931 246.33 389.989 246.33L392.615 246.33C402.242 246.33 402.679 228.977 392.615 228.977L375.987 228.977C373.087 228.977 370.736 226.586 370.736 223.638L370.736 206.507C370.736 197.831 353.67 197.831 353.67 206.507C353.67 214.573 353.67 209.301 353.67 209.301L353.67 209.399Z" fill="#CDCCCF"/>
<path d="M346.33 290.6C346.33 270.204 330.069 253.67 310.011 253.67L307.385 253.67C297.758 253.67 297.321 271.023 307.385 271.023L324.013 271.023C326.913 271.023 329.264 273.413 329.264 276.362L329.264 293.492C329.264 302.169 346.33 302.169 346.33 293.492C346.33 285.426 346.33 290.699 346.33 290.699L346.33 290.6Z" fill="#CDCCCF"/>
<path d="M339.233 246.33C344.614 246.33 346.33 244.224 346.33 238.907L346.33 207.385C346.33 197.758 328.977 197.321 328.977 207.385L328.977 224.013C328.977 226.913 326.587 229.264 323.638 229.264L306.508 229.264C297.832 229.264 297.832 246.33 306.508 246.33L339.233 246.33Z" fill="#E2E1E4"/>
<path d="M360.768 253.67C355.387 253.67 353.671 255.776 353.671 261.093L353.671 292.615C353.671 302.241 371.023 302.679 371.023 292.615L371.023 275.987C371.023 273.087 373.414 270.736 376.363 270.736L393.493 270.736C402.169 270.736 402.169 253.67 393.493 253.67L360.768 253.67Z" fill="#E2E1E4"/>
<path d="M953.67 209.399C953.67 229.795 969.931 246.33 989.989 246.33L992.615 246.33C1002.24 246.33 1002.68 228.977 992.615 228.977L975.987 228.977C973.087 228.977 970.736 226.586 970.736 223.638L970.736 206.507C970.736 197.831 953.67 197.831 953.67 206.507C953.67 214.573 953.67 209.301 953.67 209.301L953.67 209.399Z" fill="#EEEDF0"/>
<path d="M946.33 290.6C946.33 270.204 930.069 253.67 910.011 253.67L907.385 253.67C897.758 253.67 897.321 271.023 907.385 271.023L924.013 271.023C926.913 271.023 929.264 273.413 929.264 276.362L929.264 293.492C929.264 302.169 946.33 302.169 946.33 293.492C946.33 285.426 946.33 290.699 946.33 290.699L946.33 290.6Z" fill="#EEEDF0"/>
<path d="M939.233 246.33C944.614 246.33 946.33 244.224 946.33 238.907L946.33 207.385C946.33 197.758 928.977 197.321 928.977 207.385L928.977 224.013C928.977 226.913 926.587 229.264 923.638 229.264L906.508 229.264C897.832 229.264 897.832 246.33 906.508 246.33L939.233 246.33Z" fill="#EEEDF0"/>
<path d="M960.768 253.67C955.387 253.67 953.671 255.776 953.671 261.093L953.671 292.615C953.671 302.241 971.023 302.679 971.023 292.615L971.023 275.987C971.023 273.087 973.414 270.736 976.363 270.736L993.493 270.736C1002.17 270.736 1002.17 253.67 993.493 253.67L960.768 253.67Z" fill="#EEEDF0"/>
<path d="M553.67 209.399C553.67 229.795 569.931 246.33 589.989 246.33L592.615 246.33C602.242 246.33 602.679 228.977 592.615 228.977L575.987 228.977C573.087 228.977 570.736 226.586 570.736 223.638L570.736 206.507C570.736 197.831 553.67 197.831 553.67 206.507C553.67 214.573 553.67 209.301 553.67 209.301L553.67 209.399Z" fill="#EEEDF0"/>
<path d="M546.33 290.6C546.33 270.204 530.069 253.67 510.011 253.67L507.385 253.67C497.758 253.67 497.321 271.023 507.385 271.023L524.013 271.023C526.913 271.023 529.264 273.413 529.264 276.362L529.264 293.492C529.264 302.169 546.33 302.169 546.33 293.492C546.33 285.426 546.33 290.699 546.33 290.699L546.33 290.6Z" fill="#EEEDF0"/>
<path d="M539.233 246.33C544.614 246.33 546.33 244.224 546.33 238.907L546.33 207.385C546.33 197.758 528.977 197.321 528.977 207.385L528.977 224.013C528.977 226.913 526.587 229.264 523.638 229.264L506.508 229.264C497.832 229.264 497.832 246.33 506.508 246.33L539.233 246.33Z" fill="#EEEDF0"/>
<path d="M560.768 253.67C555.387 253.67 553.671 255.776 553.671 261.093L553.671 292.615C553.671 302.241 571.023 302.679 571.023 292.615L571.023 275.987C571.023 273.087 573.414 270.736 576.363 270.736L593.493 270.736C602.169 270.736 602.169 253.67 593.493 253.67L560.768 253.67Z" fill="#EEEDF0"/>
<path d="M153.67 209.399C153.67 229.795 169.931 246.33 189.989 246.33L192.615 246.33C202.242 246.33 202.679 228.977 192.615 228.977L175.987 228.977C173.087 228.977 170.736 226.586 170.736 223.638L170.736 206.507C170.736 197.831 153.67 197.831 153.67 206.507C153.67 214.573 153.67 209.301 153.67 209.301L153.67 209.399Z" fill="#EEEDF0"/>
<path d="M146.33 290.6C146.33 270.204 130.069 253.67 110.011 253.67L107.385 253.67C97.7584 253.67 97.3208 271.023 107.385 271.023L124.013 271.023C126.913 271.023 129.264 273.413 129.264 276.362L129.264 293.492C129.264 302.169 146.33 302.169 146.33 293.492C146.33 285.426 146.33 290.699 146.33 290.699L146.33 290.6Z" fill="#EEEDF0"/>
<path d="M139.233 246.33C144.614 246.33 146.33 244.224 146.33 238.907L146.33 207.385C146.33 197.758 128.977 197.321 128.977 207.385L128.977 224.013C128.977 226.913 126.587 229.264 123.638 229.264L106.508 229.264C97.8319 229.264 97.8317 246.33 106.508 246.33L139.233 246.33Z" fill="#EEEDF0"/>
<path d="M160.768 253.67C155.387 253.67 153.671 255.776 153.671 261.093L153.671 292.615C153.671 302.241 171.023 302.679 171.023 292.615L171.023 275.987C171.023 273.087 173.414 270.736 176.363 270.736L193.493 270.736C202.169 270.736 202.169 253.67 193.493 253.67L160.768 253.67Z" fill="#EEEDF0"/>
</svg>
