<svg width="28" height="28" viewBox="0 0 28 28" fill="none" xmlns="http://www.w3.org/2000/svg">
<path d="M5.72794 15.2833C5.83302 15.4514 5.97922 15.59 6.15273 15.6859C6.32624 15.7819 6.52134 15.832 6.7196 15.8316C6.9354 15.8378 7.14868 15.784 7.33571 15.6762C7.52274 15.5683 7.67619 15.4107 7.77897 15.2209C7.88175 15.031 7.92985 14.8164 7.91789 14.6008C7.90594 14.3853 7.83441 14.1773 7.71127 13.9999C6.18477 11.5755 5.20167 8.84904 4.8296 6.00828C4.80449 5.83988 4.81654 5.66802 4.86491 5.50476C4.91328 5.34151 4.9968 5.19082 5.1096 5.06328C5.21893 4.93884 5.35351 4.8391 5.50438 4.7707C5.65525 4.70231 5.81895 4.66683 5.9846 4.66662H9.4846C9.75754 4.66111 10.0238 4.75149 10.2369 4.92203C10.4501 5.09257 10.5967 5.33246 10.6513 5.59995C10.6513 5.86828 10.7446 6.11328 10.8029 6.38162V6.53328C10.9387 7.14553 11.122 7.74624 11.3513 8.32995L9.7296 9.09995C9.58948 9.16509 9.4637 9.25743 9.35955 9.37158C9.25541 9.48574 9.17498 9.61945 9.12294 9.76495C9.06357 9.90726 9.03301 10.0599 9.03301 10.2141C9.03301 10.3683 9.06357 10.521 9.12294 10.6633C9.2396 10.9083 9.35627 11.1533 9.49627 11.4099C9.57249 11.5436 9.6744 11.6609 9.79614 11.7551C9.91788 11.8492 10.057 11.9183 10.2056 11.9584C10.3542 11.9985 10.5092 12.0089 10.6618 11.9888C10.8143 11.9688 10.9614 11.9188 11.0946 11.8416C11.2853 11.7323 11.4412 11.5714 11.5444 11.3774C11.6476 11.1834 11.6939 10.9641 11.6779 10.7449L12.3429 10.4999C12.8707 10.2568 13.2888 9.8255 13.5154 9.29037C13.742 8.75524 13.7607 8.15483 13.5679 7.60662C13.3795 7.11282 13.2275 6.60591 13.1129 6.08995V5.97328C13.1129 5.73995 13.0196 5.50662 12.9846 5.29662C12.8564 4.47016 12.4364 3.71694 11.8008 3.17335C11.1652 2.62977 10.356 2.33176 9.5196 2.33328H6.0196C5.51855 2.32599 5.02177 2.42638 4.56287 2.62765C4.10396 2.82893 3.69362 3.1264 3.3596 3.49995C3.02763 3.87718 2.78078 4.32147 2.63584 4.80261C2.49089 5.28375 2.45125 5.79045 2.5196 6.28828C2.92461 9.48368 4.01933 12.5529 5.72794 15.2833ZM22.7729 15.0383L22.0729 14.9099H21.9796C21.4518 14.797 20.9331 14.645 20.4279 14.4549C19.8882 14.2613 19.296 14.2733 18.7645 14.4885C18.233 14.7037 17.7993 15.107 17.5463 15.6216L17.3013 16.1583C16.5055 15.6979 15.7554 15.1627 15.0613 14.5599L25.3279 4.30495C25.4367 4.19617 25.523 4.06703 25.5819 3.92491C25.6407 3.78278 25.671 3.63045 25.671 3.47662C25.671 3.32278 25.6407 3.17045 25.5819 3.02833C25.523 2.8862 25.4367 2.75706 25.3279 2.64828C25.2192 2.5395 25.09 2.45322 24.9479 2.39435C24.8058 2.33548 24.6534 2.30518 24.4996 2.30518C24.3458 2.30518 24.1934 2.33548 24.0513 2.39435C23.9092 2.45322 23.78 2.5395 23.6713 2.64828L2.67127 23.6483C2.56192 23.7567 2.47513 23.8858 2.4159 24.0279C2.35667 24.1701 2.32617 24.3226 2.32617 24.4766C2.32617 24.6306 2.35667 24.7831 2.4159 24.9253C2.47513 25.0675 2.56192 25.1965 2.67127 25.3049C2.77973 25.4143 2.90876 25.5011 3.05093 25.5603C3.1931 25.6196 3.34559 25.65 3.4996 25.65C3.65362 25.65 3.80611 25.6196 3.94828 25.5603C4.09045 25.5011 4.21948 25.4143 4.32794 25.3049L9.68294 19.9383C13.0343 22.9497 17.2202 24.8738 21.6879 25.4566C21.8433 25.4682 21.9993 25.4682 22.1546 25.4566C23.0134 25.4611 23.8438 25.1497 24.4879 24.5816C24.857 24.2515 25.1519 23.8468 25.353 23.3943C25.5541 22.9418 25.6569 22.4518 25.6546 21.9566V18.4566C25.6484 17.6402 25.3569 16.8516 24.8307 16.2274C24.3045 15.6031 23.5766 15.1825 22.7729 15.0383ZM23.3329 22.0383C23.3327 22.2039 23.2972 22.3676 23.2288 22.5185C23.1605 22.6694 23.0607 22.804 22.9363 22.9133C22.8087 23.0261 22.658 23.1096 22.4948 23.158C22.3315 23.2063 22.1597 23.2184 21.9913 23.1933C18.028 22.6747 14.3124 20.9754 11.3279 18.3166L13.3929 16.2516C14.5824 17.2885 15.9094 18.1561 17.3363 18.8299C17.4786 18.8893 17.6312 18.9199 17.7854 18.9199C17.9396 18.9199 18.0923 18.8893 18.2346 18.8299C18.3801 18.7779 18.5138 18.6975 18.628 18.5933C18.7421 18.4892 18.8345 18.3634 18.8996 18.2233L19.6229 16.5783C20.2317 16.8041 20.8554 16.9873 21.4896 17.1266H21.6179L22.4229 17.2783C22.6861 17.3376 22.9206 17.4862 23.0865 17.6989C23.2525 17.9116 23.3395 18.1753 23.3329 18.445V22.0383Z" fill="white"/>
</svg>
