<svg width="14" height="17" viewBox="0 0 14 17" fill="none" xmlns="http://www.w3.org/2000/svg">
<path d="M11.6523 8.79492C11.6523 8.86914 11.541 11.0586 13.9531 12.209C13.5078 13.582 11.9492 16.625 10.1309 16.625C9.0918 16.625 8.49805 15.957 7.31055 15.957C6.08594 15.957 5.41797 16.625 4.49023 16.625C2.70898 16.6992 1.00195 13.3594 0.519531 11.9863C0.148438 10.9473 0 9.94531 0 8.98047C0 5.67773 2.18945 4.08203 4.26758 4.04492C5.26953 4.04492 6.53125 4.75 7.08789 4.75C7.60742 4.75 9.05469 3.89648 10.3906 4.00781C11.7637 4.11914 12.8027 4.63867 13.5078 5.64062C12.2832 6.41992 11.6523 7.42188 11.6523 8.79492ZM9.57422 2.70898C8.83203 3.5625 7.94141 4.04492 6.97656 3.9707C6.90234 2.96875 7.27344 2.04102 7.94141 1.29883C8.53516 0.630859 9.57422 0.0742188 10.4648 0C10.4648 0.408203 10.5762 1.52148 9.57422 2.70898Z" fill="#1E293B"/>
</svg>
