<svg width="28" height="28" viewBox="0 0 28 28" fill="none" xmlns="http://www.w3.org/2000/svg">
<path d="M22.1663 4.66667H5.83301C4.90475 4.66667 4.01451 5.03542 3.35813 5.6918C2.70176 6.34818 2.33301 7.23841 2.33301 8.16667V19.8333C2.33301 20.7616 2.70176 21.6518 3.35813 22.3082C4.01451 22.9646 4.90475 23.3333 5.83301 23.3333H22.1663C23.0946 23.3333 23.9848 22.9646 24.6412 22.3082C25.2976 21.6518 25.6663 20.7616 25.6663 19.8333V8.16667C25.6663 7.23841 25.2976 6.34818 24.6412 5.6918C23.9848 5.03542 23.0946 4.66667 22.1663 4.66667ZM21.688 7.00001L14.828 13.86C14.7196 13.9694 14.5905 14.0561 14.4483 14.1154C14.3062 14.1746 14.1537 14.2051 13.9997 14.2051C13.8457 14.2051 13.6932 14.1746 13.551 14.1154C13.4088 14.0561 13.2798 13.9694 13.1713 13.86L6.31134 7.00001H21.688ZM23.333 19.8333C23.333 20.1428 23.2101 20.4395 22.9913 20.6583C22.7725 20.8771 22.4758 21 22.1663 21H5.83301C5.52359 21 5.22684 20.8771 5.00805 20.6583C4.78926 20.4395 4.66634 20.1428 4.66634 19.8333V8.645L11.5263 15.505C12.1826 16.1604 13.0722 16.5286 13.9997 16.5286C14.9272 16.5286 15.8168 16.1604 16.473 15.505L23.333 8.645V19.8333Z" fill="#0180FE"/>
</svg>
