<svg width="1080" height="1080" viewBox="0 0 1080 1080" fill="none" xmlns="http://www.w3.org/2000/svg">
<path d="M500.365 978.486C500.365 758.209 324.747 579.64 108.115 579.64H79.7595C-24.2105 579.64 -28.9363 767.049 79.7595 767.049H259.345C290.664 767.049 316.053 792.869 316.053 824.715V1009.72C316.053 1103.43 500.365 1103.43 500.365 1009.72C500.365 922.609 500.365 979.553 500.365 979.553V978.486Z" fill="#6FE876"/>
<path d="M579.637 101.514C579.637 321.792 755.254 500.361 971.885 500.361H1000.24C1104.21 500.361 1108.94 312.951 1000.24 312.951H820.657C789.338 312.951 763.948 287.132 763.948 255.286V70.2793C763.948 -23.4259 579.637 -23.427 579.637 70.2793C579.637 157.392 579.637 100.448 579.637 100.448V101.514Z" fill="#6FE876"/>
<path d="M656.29 579.64C598.167 579.64 579.637 602.383 579.637 659.808V1000.24C579.637 1104.21 767.045 1108.94 767.045 1000.24V820.658C767.045 789.338 792.862 763.947 824.709 763.947H1009.71C1103.42 763.947 1103.42 579.64 1009.71 579.64H656.29Z" fill="#0180FE"/>
<path d="M423.702 500.359C481.822 500.359 500.356 477.616 500.356 420.191V79.7586C500.356 -24.2101 312.948 -28.936 312.948 79.7586V259.341C312.948 290.662 287.129 316.053 255.284 316.053H70.2784C-23.4255 316.053 -23.4268 500.359 70.2784 500.359H423.702Z" fill="#0180FE"/>
</svg>
