<svg width="28" height="28" viewBox="0 0 28 28" fill="none" xmlns="http://www.w3.org/2000/svg">
<path d="M19.8327 10.5V8.16666C19.8327 6.61957 19.2181 5.13583 18.1241 4.04187C17.0302 2.94791 15.5464 2.33333 13.9993 2.33333C12.4523 2.33333 10.9685 2.94791 9.87456 4.04187C8.7806 5.13583 8.16602 6.61957 8.16602 8.16666V10.5C7.23776 10.5 6.34752 10.8687 5.69114 11.5251C5.03476 12.1815 4.66602 13.0717 4.66602 14V22.1667C4.66602 23.0949 5.03476 23.9852 5.69114 24.6415C6.34752 25.2979 7.23776 25.6667 8.16602 25.6667H19.8327C20.7609 25.6667 21.6512 25.2979 22.3076 24.6415C22.9639 23.9852 23.3327 23.0949 23.3327 22.1667V14C23.3327 13.0717 22.9639 12.1815 22.3076 11.5251C21.6512 10.8687 20.7609 10.5 19.8327 10.5ZM10.4993 8.16666C10.4993 7.2384 10.8681 6.34817 11.5245 5.69179C12.1809 5.03541 13.0711 4.66666 13.9993 4.66666C14.9276 4.66666 15.8178 5.03541 16.4742 5.69179C17.1306 6.34817 17.4993 7.2384 17.4993 8.16666V10.5H10.4993V8.16666ZM20.9993 22.1667C20.9993 22.4761 20.8764 22.7728 20.6576 22.9916C20.4388 23.2104 20.1421 23.3333 19.8327 23.3333H8.16602C7.8566 23.3333 7.55985 23.2104 7.34106 22.9916C7.12227 22.7728 6.99935 22.4761 6.99935 22.1667V14C6.99935 13.6906 7.12227 13.3938 7.34106 13.175C7.55985 12.9562 7.8566 12.8333 8.16602 12.8333H19.8327C20.1421 12.8333 20.4388 12.9562 20.6576 13.175C20.8764 13.3938 20.9993 13.6906 20.9993 14V22.1667Z" fill="#0180FE"/>
</svg>
