<svg width="28" height="28" viewBox="0 0 28 28" fill="none" xmlns="http://www.w3.org/2000/svg">
<path d="M22.6804 15.1667C22.4237 15.1667 22.1554 15.085 21.8987 15.0267C21.3789 14.9121 20.8681 14.7601 20.3704 14.5717C19.8291 14.3748 19.2342 14.385 18.7001 14.6004C18.1659 14.8157 17.7303 15.2211 17.477 15.7383L17.2204 16.2633C16.084 15.6312 15.0398 14.8461 14.117 13.93C13.2009 13.0072 12.4158 11.963 11.7837 10.8267L12.2737 10.5C12.791 10.2467 13.1963 9.81111 13.4117 9.27697C13.627 8.74282 13.6373 8.14789 13.4404 7.60666C13.2551 7.10782 13.1031 6.59726 12.9854 6.07833C12.927 5.82166 12.8804 5.55333 12.8454 5.28499C12.7037 4.46322 12.2733 3.71903 11.6316 3.18644C10.9899 2.65385 10.1792 2.36787 9.34536 2.37999H5.84536C5.34257 2.37527 4.84465 2.47894 4.38552 2.68395C3.92639 2.88895 3.51682 3.19047 3.1847 3.56799C2.85257 3.94551 2.60569 4.39015 2.46085 4.87166C2.31601 5.35317 2.27662 5.86023 2.34536 6.35833C2.96689 11.2459 5.19906 15.7872 8.68929 19.2647C12.1795 22.7423 16.7289 24.9579 21.6187 25.5617H22.062C22.9223 25.5629 23.753 25.2473 24.3954 24.675C24.7645 24.3449 25.0593 23.9402 25.2604 23.4877C25.4615 23.0352 25.5643 22.5452 25.562 22.05V18.55C25.5477 17.7396 25.2526 16.9593 24.7271 16.3423C24.2015 15.7252 23.4781 15.3097 22.6804 15.1667ZM23.2637 22.1667C23.2635 22.3323 23.228 22.496 23.1596 22.6469C23.0912 22.7978 22.9915 22.9323 22.867 23.0417C22.7371 23.1548 22.5847 23.2393 22.4198 23.2896C22.255 23.3398 22.0814 23.3547 21.9104 23.3333C17.5411 22.7731 13.4826 20.7742 10.3752 17.652C7.26776 14.5298 5.28817 10.4619 4.7487 6.08999C4.73013 5.9191 4.7464 5.74621 4.79653 5.58178C4.84666 5.41735 4.92961 5.2648 5.04036 5.13333C5.14969 5.00888 5.28427 4.90914 5.43514 4.84075C5.58601 4.77235 5.74971 4.73687 5.91536 4.73666H9.41536C9.68667 4.73062 9.95159 4.81935 10.1645 4.98758C10.3775 5.1558 10.5251 5.39299 10.582 5.65833C10.6287 5.97722 10.687 6.29222 10.757 6.60333C10.8918 7.21833 11.0712 7.8227 11.2937 8.41166L9.66036 9.16999C9.52071 9.23407 9.39509 9.3251 9.29071 9.43785C9.18634 9.55061 9.10526 9.68288 9.05215 9.82705C8.99903 9.97123 8.97491 10.1245 8.98118 10.278C8.98746 10.4315 9.02399 10.5823 9.0887 10.7217C10.7678 14.3182 13.6588 17.2093 17.2554 18.8883C17.5394 19.005 17.858 19.005 18.142 18.8883C18.2875 18.8363 18.4212 18.7559 18.5354 18.6517C18.6496 18.5476 18.7419 18.4218 18.807 18.2817L19.5304 16.6483C20.1335 16.864 20.749 17.0432 21.3737 17.185C21.6848 17.255 21.9998 17.3133 22.3187 17.36C22.584 17.4169 22.8212 17.5646 22.9894 17.7775C23.1577 17.9904 23.2464 18.2554 23.2404 18.5267L23.2637 22.1667Z" fill="#0180FE"/>
</svg>
