<svg width="279" height="107" viewBox="0 0 279 107" fill="none" xmlns="http://www.w3.org/2000/svg">
<path d="M207.558 105.62V52.1357H215.809V105.62H207.558Z" fill="white"/>
<path d="M185.605 106.078C173.304 106.078 165.587 98.1321 165.587 86.1364C165.587 74.0642 173.304 66.0416 184.841 66.0416C196.149 66.0416 203.714 73.2238 203.943 84.6847C203.943 85.6779 203.866 86.7476 203.714 87.8173H174.221V88.3522C174.45 94.9995 178.652 99.3546 185.147 99.3546C190.19 99.3546 193.857 96.8332 195.003 92.4781H203.255C201.88 100.195 195.309 106.078 185.605 106.078ZM174.526 81.7812H195.385C194.698 75.9744 190.648 72.6889 184.918 72.6889C179.646 72.6889 175.138 76.2036 174.526 81.7812Z" fill="white"/>
<path d="M147.328 94.9996V73.7587H140.528V66.5001H147.328V55.5741H155.657V66.5001H165.207V73.7587H155.657V94.1591C155.657 97.2154 156.726 98.3614 159.859 98.3614H165.666V105.62H158.025C150.538 105.62 147.328 102.105 147.328 94.9996Z" fill="white"/>
<path d="M121.279 106.078C109.36 106.078 101.337 98.0557 101.337 86.06C101.337 74.1406 109.36 66.0416 121.279 66.0416C133.198 66.0416 141.221 74.1406 141.221 86.06C141.221 98.0557 133.198 106.078 121.279 106.078ZM121.279 99.049C128.232 99.049 132.816 93.6242 132.816 86.06C132.816 78.4958 128.232 73.071 121.279 73.071C114.326 73.071 109.818 78.4958 109.818 86.06C109.818 93.6242 114.326 99.049 121.279 99.049Z" fill="white"/>
<path d="M100.787 66.5003H102.621V74.2173H98.9535C91.6185 74.2173 89.2499 79.9477 89.2499 85.9838V105.62H80.998V66.5003H88.333L89.2499 72.3835C91.2364 69.0981 94.3691 66.5003 100.787 66.5003Z" fill="white"/>
<path d="M67.67 86.0602V66.5003H75.9218V105.62H68.6633L67.7464 100.654C65.3014 103.634 61.7103 106.079 55.6742 106.079C47.346 106.079 40.2402 101.647 40.2402 88.276V66.5003H48.4921V87.3591C48.4921 94.9997 51.5483 98.8964 57.5844 98.8964C63.8497 98.8964 67.67 94.1592 67.67 86.0602Z" fill="white"/>
<path d="M19.4071 106.078C7.5642 106.078 0 98.3613 0 86.1364C0 74.0642 7.79341 66.0416 19.6363 66.0416C29.7219 66.0416 35.9872 71.6192 37.5918 80.4823H28.9579C27.8882 75.898 24.6027 73.071 19.4835 73.071C12.8362 73.071 8.48107 78.4194 8.48107 86.1364C8.48107 93.777 12.8362 99.049 19.4835 99.049C24.5263 99.049 27.8882 96.1456 28.8815 91.6376H37.5918C36.0636 100.501 29.4163 106.078 19.4071 106.078Z" fill="white"/>
<mask id="mask0_33_9227" style="mask-type:luminance" maskUnits="userSpaceOnUse" x="219" y="0" width="60" height="59">
<path d="M278.059 0H219.863V58.4281H278.059V0Z" fill="white"/>
</mask>
<g mask="url(#mask0_33_9227)">
<path d="M246.624 52.9991C246.624 41.2183 237.231 31.6681 225.645 31.6681H224.129C218.568 31.6681 218.316 41.6911 224.129 41.6911H233.734C235.409 41.6911 236.766 43.0719 236.766 44.7751V54.6695C236.766 59.681 246.624 59.6811 246.624 54.6695C246.624 50.0106 246.624 53.0561 246.624 53.0561V52.9991Z" fill="#6FE876"/>
<path d="M251.298 5.42912C251.298 17.2099 260.69 26.7601 272.276 26.7601H273.793C279.353 26.7601 279.606 16.7371 273.793 16.7371H264.188C262.513 16.7371 261.155 15.3563 261.155 13.6531V3.75862C261.155 -1.25288 251.298 -1.25293 251.298 3.75862C251.298 8.41753 251.298 5.37211 251.298 5.37211V5.42912Z" fill="#6FE876"/>
<path d="M255.784 31.6484C252.73 31.6484 251.756 32.8656 251.756 35.939V54.1592C251.756 59.7237 261.604 59.9767 261.604 54.1592V44.5478C261.604 42.8715 262.961 41.5126 264.634 41.5126H274.356C279.28 41.5126 279.28 31.6484 274.356 31.6484H255.784Z" fill="white"/>
<path d="M242.371 26.7795C245.426 26.7795 246.4 25.5623 246.4 22.4889V4.26871C246.4 -1.29576 236.551 -1.5487 236.551 4.26871V13.8801C236.551 15.5564 235.195 16.9153 233.521 16.9153H223.799C218.875 16.9153 218.875 26.7795 223.799 26.7795H242.371Z" fill="white"/>
</g>
</svg>
